<?xml version="1.0" encoding="UTF-8" standalone="no"?>
<svg width="15px" height="20px" viewBox="0 0 15 20" version="1.1" xmlns="http://www.w3.org/2000/svg" xmlns:xlink="http://www.w3.org/1999/xlink">
    <!-- Generator: sketchtool 49.3 (51167) - http://www.bohemiancoding.com/sketch -->
    <title>81DD8E65-D32F-4E2B-AAF8-DED0692C2FC3</title>
    <desc>Created with sketchtool.</desc>
    <defs></defs>
    <g id="Symbols" stroke="none" stroke-width="1" fill="none" fill-rule="evenodd">
        <g id="Address" fill="#1D1D1B">
            <g id="Page-1">
                <path d="M7.03818182,8.77909091 C6.035,8.77909091 5.22,7.96409091 5.22,6.96090909 C5.22,5.95909091 6.035,5.14272727 7.03818182,5.14272727 C8.04,5.14272727 8.85636364,5.95909091 8.85636364,6.96090909 C8.85636364,7.96409091 8.04,8.77909091 7.03818182,8.77909091 M7.03818182,4.41636364 C5.63409091,4.41636364 4.49227273,5.55818182 4.49227273,6.96090909 C4.49227273,8.365 5.63409091,9.50681818 7.03818182,9.50681818 C8.44090909,9.50681818 9.58272727,8.365 9.58272727,6.96090909 C9.58272727,5.55818182 8.44090909,4.41636364 7.03818182,4.41636364" id="Fill-1"></path>
                <path d="M11.9618182,11.4813636 L6.97454545,18.6863636 L1.97636364,11.4704545 C0.0868181818,8.94954545 0.356818182,4.80863636 2.55681818,2.60863636 C3.73772727,1.43 5.30545455,0.78 6.97454545,0.78 C8.64181818,0.78 10.2095455,1.43 11.3904545,2.60863636 C13.59,4.80863636 13.8618182,8.94954545 11.9618182,11.4813636 M11.905,2.09409091 C10.5877273,0.778181818 8.83681818,0.0518181818 6.97454545,0.0518181818 C5.11,0.0518181818 3.35954545,0.778181818 2.04181818,2.09409091 C-0.394090909,4.53181818 -0.697727273,9.11636364 1.38681818,11.895 L6.97454545,19.9631818 L12.5513636,11.9059091 C14.645,9.11636364 14.3413636,4.53181818 11.905,2.09409091" id="Fill-3"></path>
            </g>
        </g>
    </g>
</svg>