<?xml version="1.0" encoding="UTF-8" standalone="no"?>
<svg width="28px" height="27px" viewBox="0 0 28 27" version="1.1" xmlns="http://www.w3.org/2000/svg" xmlns:xlink="http://www.w3.org/1999/xlink">
    <!-- Generator: sketchtool 49.3 (51167) - http://www.bohemiancoding.com/sketch -->
    <title>B2C59B9F-20B9-4F0F-B25B-8C8F39B2F822</title>
    <desc>Created with sketchtool.</desc>
    <defs></defs>
    <g id="Page-1" stroke="none" stroke-width="1" fill="none" fill-rule="evenodd">
        <g id="Materials" transform="translate(-802.000000, -84.000000)" fill="#000000">
            <g id="Filter" transform="translate(802.000000, 84.000000)">
                <g id="Page-1">
                    <path d="M3.50156264,26.0018519 C2.12206447,26.0018519 1.00133941,24.8787009 1.00133941,23.501794 C1.00133941,22.1223871 2.12206447,21.0017362 3.50156264,21.0017362 C4.87856059,21.0017362 6.00178587,22.1223871 6.00178587,23.501794 C6.00178587,24.8787009 4.87856059,26.0018519 3.50156264,26.0018519 M3.99910706,20.0392139 L3.99910706,0.500636589 C3.99910706,0.224380194 3.77721225,0 3.50156264,0 C3.22528797,0 3.00089294,0.224380194 3.00089294,0.500636589 L3.00089294,20.0392139 C1.30636664,20.2835945 0,21.7411283 0,23.501794 C0,25.4299637 1.57014019,27 3.50156264,27 C5.43048486,27 7,25.4299637 7,23.501794 C7,21.7411283 5.69363336,20.2835945 3.99910706,20.0392139" id="Fill-1"></path>
                    <path d="M13.4996965,16.0016204 C12.1058885,16.0016204 10.9719018,14.8315933 10.9719018,13.3965601 C10.9719018,11.9609019 12.1058885,10.7939999 13.4996965,10.7939999 C14.8941115,10.7939999 16.0274911,11.9609019 16.0274911,13.3965601 C16.0274911,14.8315933 14.8941115,16.0016204 13.4996965,16.0016204 M14.0855086,9.84897799 L14.0855086,0.500636589 C14.0855086,0.224380194 13.8675744,0 13.5992542,0 C13.3315411,0 13.116035,0.224380194 13.116035,0.500636589 L13.116035,9.81710225 C11.3658833,10.0146068 10,11.5433922 10,13.3965601 C10,15.249103 11.3658833,16.7803884 13.116035,16.977893 L13.116035,26.4993634 C13.116035,26.7781199 13.3315411,27 13.5992542,27 C13.8675744,27 14.0855086,26.7781199 14.0855086,26.4993634 L14.0855086,16.9460173 C15.7385309,16.6578856 17,15.1784764 17,13.3965601 C17,11.6165189 15.7385309,10.1371097 14.0855086,9.84897799" id="Fill-3"></path>
                    <path d="M24.4984374,6.00138892 C23.1214394,6.00138892 21.9982141,4.87823792 21.9982141,3.50133105 C21.9982141,2.12192412 23.1214394,1.00127318 24.4984374,1.00127318 C25.8779355,1.00127318 26.9986606,2.12192412 26.9986606,3.50133105 C26.9986606,4.87823792 25.8779355,6.00138892 24.4984374,6.00138892 M28,3.50133105 C28,1.57003634 26.4298598,0 24.4984374,0 C22.5695151,0 21,1.57003634 21,3.50133105 C21,5.25887173 22.3057416,6.71640547 23.9977677,6.96078613 L23.9977677,26.4993634 C23.9977677,26.7781199 24.2227877,27 24.4984374,27 C24.774712,27 24.9991071,26.7781199 24.9991071,26.4993634 L24.9991071,6.96078613 C26.6936334,6.71640547 28,5.25887173 28,3.50133105" id="Fill-5"></path>
                </g>
            </g>
        </g>
    </g>
</svg>