<?xml version="1.0" encoding="UTF-8" standalone="no"?>
<svg width="25px" height="23px" viewBox="0 0 25 23" version="1.1" xmlns="http://www.w3.org/2000/svg" xmlns:xlink="http://www.w3.org/1999/xlink">
    <!-- Generator: sketchtool 49.3 (51167) - http://www.bohemiancoding.com/sketch -->
    <title>772A0C0F-8C8C-4389-84FE-6AF6898DC0C0</title>
    <desc>Created with sketchtool.</desc>
    <defs></defs>
    <g id="Page-1" stroke="none" stroke-width="1" fill="none" fill-rule="evenodd">
        <g id="Materials" transform="translate(-884.000000, -87.000000)" stroke="#F3CB8E">
            <g id="Heart-not-filled" transform="translate(885.000000, 88.000000)">
                <path d="M22.9693339,8.42538589 C22.4926304,10.44337 21.3905936,12.2794939 19.7834565,13.7355843 L11.5302639,21.0988097 L3.41845095,13.738001 C1.80889713,12.2794939 0.706860282,10.44337 0.229552655,8.42538589 C-0.112417113,6.97594159 0.0289626148,6.15968513 0.0289626148,6.15243489 L0.0362128573,6.10530831 C0.350390029,2.56779419 2.80701384,0 5.87749151,0 C8.14077552,0 10.1351964,1.3896298 11.081353,3.63176727 L11.5278471,4.68667755 L11.973737,3.63176727 C12.9035806,1.42527682 15.0043384,0 17.3238117,0 C20.3924769,0 22.8491007,2.56779419 23.1699239,6.15001814 C23.1699239,6.15968513 23.3119078,6.97835834 22.9693339,8.42538589" id="Fill-1"></path>
            </g>
        </g>
    </g>
</svg>