<?xml version="1.0" encoding="UTF-8" standalone="no"?>
<svg width="25px" height="32px" viewBox="0 0 25 32" version="1.1" xmlns="http://www.w3.org/2000/svg" xmlns:xlink="http://www.w3.org/1999/xlink">
    <!-- Generator: sketchtool 49.3 (51167) - http://www.bohemiancoding.com/sketch -->
    <title>FA69256E-7AD9-4581-B949-82A4B85CB6DF</title>
    <desc>Created with sketchtool.</desc>
    <defs></defs>
    <g id="Page-1" stroke="none" stroke-width="1" fill="none" fill-rule="evenodd">
        <g id="Materials" transform="translate(-1204.000000, -75.000000)" fill="#1078D1">
            <g id="Page-1" transform="translate(1204.000000, 75.000000)">
                <path d="M20.5998113,11 C20.3749602,11 20.1569293,10.8844687 20.0401346,10.680115 C19.8687789,10.3801063 19.9802454,10.0020416 20.2890692,9.83557716 C22.0507932,8.88586032 22.9992171,6.95495573 22.6492593,5.03088365 C22.1965734,2.54095672 19.7426066,0.872999686 17.1790914,1.31255688 C14.6155763,1.75252817 12.8986094,4.13665494 13.3512953,6.62678891 C13.4128896,6.96447982 13.180579,7.28664232 12.8329657,7.34647842 C12.4849261,7.40631451 12.1535105,7.18063512 12.0921294,6.84273717 C11.5164681,3.67804958 13.6986955,0.648562568 16.9565848,0.0893331793 C20.2138347,-0.469275073 23.332977,1.65024779 23.9084252,4.81493539 C24.3534385,7.26055462 23.1481942,9.71486975 20.9094876,10.9217369 C20.8112352,10.9747405 20.7046707,11 20.5998113,11" id="Fill-1"></path>
                <path d="M3.09341125,28 L3.08470954,28 L0.660752326,27.9672207 C0.31607966,27.9623567 0.0376248962,27.6851072 0.0329556852,27.3414532 L5.89714798e-05,24.926147 C-0.00227563401,24.7546372 0.0647912147,24.5898947 0.186402937,24.4689285 L0.854736818,23.8029799 C0.997147753,23.6608657 1.19919725,23.5948841 1.39785095,23.6240683 L2.12497444,23.7308654 L2.01270114,23.0177569 C1.98107785,22.8176974 2.04750799,22.6146771 2.19098011,22.4712941 C2.33445223,22.3281225 2.53841185,22.261718 2.73918792,22.292594 L3.46100549,22.4040437 L3.34915667,21.6848022 C3.31838232,21.4860116 3.38396351,21.2842602 3.52594997,21.1413002 C3.66793644,20.9985516 3.86977369,20.9308782 4.06927634,20.9596394 L4.78854707,21.0630528 L4.68497548,20.3463491 C4.65632351,20.1484044 4.72296588,19.9485564 4.86495234,19.8072881 L8.56211849,16.1231055 C7.69131065,13.9309101 8.19876898,11.4111331 9.88987231,9.72606523 C10.8903569,8.72915135 12.2170495,8.11691849 13.6254533,8.00208518 C13.9758564,7.97395842 14.2833876,8.23365512 14.3120396,8.58301908 C14.3406916,8.93217157 14.0798525,9.23839374 13.7292372,9.26694346 C12.6213607,9.35724516 11.5775798,9.83878375 10.7903933,10.6231608 C9.37413673,12.0343629 9.01333406,14.1897609 9.89263139,15.9869128 C10.0116963,16.2303256 9.96245732,16.5221672 9.77038295,16.713556 L5.99065666,20.4795811 L6.17042129,21.7215996 C6.19886103,21.9193329 6.13221865,22.1191809 5.99023219,22.2604491 C5.84845797,22.4019289 5.64789413,22.4687563 5.44945266,22.4399952 L4.73930812,22.3380621 L4.8526426,23.0666086 C4.88362919,23.2664566 4.81719905,23.4692654 4.67351469,23.6122255 C4.52983034,23.755397 4.32629518,23.8209556 4.12594359,23.7907141 L3.40582391,23.6794759 L3.51703603,24.3858171 C3.54844708,24.5852422 3.48265365,24.7874165 3.34045496,24.930588 C3.19783178,25.0739711 2.99535782,25.1407985 2.79521846,25.1118259 L1.52880109,24.925724 L1.27687594,25.1765386 L1.29767515,26.7068035 L2.83320885,26.7275285 L11.3267159,18.2643344 C11.5187902,18.0727341 11.8116771,18.0238824 12.0559617,18.1427338 C13.0309779,18.6162362 14.1528619,18.7378368 15.2151074,18.484696 C15.5568088,18.4034879 15.9006325,18.6134869 15.9823437,18.9543917 C16.0642671,19.295085 15.8533037,19.6372587 15.5111779,19.7188897 C14.313313,20.003964 13.0547484,19.9138737 11.9194934,19.4680752 L3.54356563,27.8141096 C3.42428852,27.933384 3.26213955,28 3.09341125,28" id="Fill-3"></path>
                <path d="M19.1753712,13 C18.9970922,13 18.8190377,12.9795015 18.6445758,12.9391257 C18.3598682,12.8728681 18.097614,12.75671 17.864549,12.5943787 C17.6397917,12.4372238 17.4525314,12.2446624 17.3079324,12.0210427 C17.1631087,11.7970088 17.0681314,11.5535118 17.0252456,11.2967633 C16.9810127,11.0304902 16.9949337,10.7625607 17.0667842,10.5002216 C17.1388592,10.2380897 17.2645975,9.99604204 17.4406312,9.78111867 C17.610827,9.57406339 17.8196425,9.40158635 18.0621378,9.26824275 C18.3055313,9.13427798 18.5698064,9.0466936 18.8480024,9.0073531 C19.2139908,8.95496811 19.5593221,9.18811236 19.6156799,9.5272689 C19.6720376,9.86621839 19.4196628,10.18322 19.0521027,10.2353979 C18.9461232,10.2503059 18.8455326,10.2838489 18.7523515,10.3349915 C18.659844,10.3859271 18.5799103,10.4517707 18.5152449,10.5306588 C18.4483341,10.6122385 18.4005087,10.7043781 18.3731157,10.8045929 C18.3454981,10.9052218 18.3401094,11.0073 18.3567248,11.1081359 C18.3731157,11.205866 18.40949,11.2988338 18.464725,11.3845547 C18.5201846,11.4698615 18.591586,11.5437802 18.6773575,11.6036192 C18.7653744,11.6651146 18.865516,11.7092174 18.9741898,11.7346852 C19.0518781,11.752699 19.1313627,11.7597389 19.2101737,11.7570472 C19.2862903,11.7539413 19.3615088,11.7408969 19.4342574,11.7185349 C19.5063324,11.6957588 19.5754885,11.6640794 19.6385822,11.6239106 C19.7030231,11.5835349 19.760728,11.535291 19.8110233,11.4802143 C20.0501507,11.2176682 20.4751912,11.1835041 20.7598987,11.4046391 C21.0446062,11.62536 21.0814296,12.0173157 20.8418531,12.2796547 C20.7131959,12.4210734 20.5641061,12.5455137 20.3990746,12.6494554 C20.2351657,12.7531901 20.0555395,12.8358052 19.8662584,12.895023 C19.6722621,12.9554831 19.4715298,12.9900613 19.2687768,12.9981365 C19.2375667,12.9993788 19.2065812,13 19.1753712,13" id="Fill-5"></path>
                <path d="M18.9998934,32 C18.8389727,32 18.6780519,31.9414035 18.5540044,31.8237964 L16.8094528,30.1743981 C16.6856184,30.0574121 16.6159216,29.8969447 16.6159216,29.7292303 L16.6159216,28.8072154 C16.6159216,28.6107205 16.7116215,28.4258206 16.8740342,28.3086276 L17.4665636,27.8810595 L16.8787233,27.4650864 C16.7137529,27.3481005 16.6161347,27.1619582 16.6159216,26.9635998 C16.6157084,26.7652413 16.7131134,26.578685 16.8776576,26.461699 L17.4695476,26.0409637 L16.8776576,25.6202284 C16.7141791,25.5038636 16.6169873,25.3189637 16.6159216,25.1220546 C16.6148559,24.9251456 16.7099163,24.7396245 16.8723291,24.6213962 L17.4567592,24.1965198 L16.8723291,23.7720575 C16.710982,23.6546575 16.6159216,23.4703787 16.6159216,23.2745049 L16.6159216,18.1737107 C14.4352853,17.2566651 13,15.162099 13,12.8287988 C13,9.61489469 15.691533,7 18.9998934,7 C19.428305,7 19.8616188,7.04596616 20.2881121,7.1368632 C20.6331859,7.21036765 20.8514414,7.54165528 20.7757766,7.8766699 C20.700325,8.21189157 20.3590878,8.42350154 20.0142271,8.35041121 C19.6774658,8.27877026 19.3362285,8.24232862 18.9998934,8.24232862 C16.3966004,8.24232862 14.2788405,10.2998319 14.2788405,12.8287988 C14.2788405,14.7827747 15.5585336,16.5238983 17.4635797,17.161627 C17.7214792,17.2479688 17.8947621,17.4838042 17.8947621,17.7488343 L17.8947621,22.9635087 L18.9069644,23.6991743 C19.0685245,23.8165743 19.163585,24.0008531 19.163585,24.1965198 C19.163585,24.3923936 19.0685245,24.5766724 18.9071775,24.6940724 L18.3302073,25.1133583 L18.9297703,25.5396841 C19.0945276,25.656463 19.1917195,25.8428123 19.1917195,26.0409637 C19.1917195,26.2391151 19.0945276,26.4252574 18.9297703,26.5422433 L18.3393723,26.9619433 L18.9218842,27.3741894 C19.0862152,27.4907612 19.1838333,27.6758682 19.1846859,27.8733984 C19.1857516,28.0709287 19.0898385,28.257278 18.9265732,28.3748851 L17.8947621,29.1196611 L17.8947621,29.467099 L18.9998934,30.5118974 L20.1050248,29.467099 L20.1050248,17.7488343 C20.1050248,17.4838042 20.2783077,17.2479688 20.5362072,17.161627 C22.4412533,16.5238983 23.7211595,14.7827747 23.7211595,12.8287988 C23.7211595,11.6450667 23.2528907,10.5199311 22.402888,9.65982558 C22.1582032,9.41239513 22.1663026,9.01940517 22.421005,8.78149924 C22.6754942,8.54380037 23.0804604,8.55166845 23.3251452,8.79930595 C24.405126,9.89193397 25,11.3228895 25,12.8287988 C25,15.162099 23.5647147,17.2566651 21.3838653,18.1737107 L21.3838653,29.7292303 C21.3838653,29.8969447 21.3141685,30.0574121 21.1903341,30.1743981 L19.4457825,31.8237964 C19.321735,31.9414035 19.1608142,32 18.9998934,32" id="Fill-7"></path>
            </g>
        </g>
    </g>
</svg>