<?xml version="1.0" encoding="UTF-8" standalone="no"?>
<svg width="23px" height="24px" viewBox="0 0 23 24" version="1.1" xmlns="http://www.w3.org/2000/svg" xmlns:xlink="http://www.w3.org/1999/xlink">
    <!-- Generator: sketchtool 49.3 (51167) - http://www.bohemiancoding.com/sketch -->
    <title>A30E645D-8DCE-4577-9FE1-0FB87F2BBD46</title>
    <desc>Created with sketchtool.</desc>
    <defs></defs>
    <g id="Page-1" stroke="none" stroke-width="1" fill="none" fill-rule="evenodd">
        <g id="Materials" transform="translate(-1251.000000, -81.000000)" fill="#1078D1">
            <g id="Group-2" transform="translate(1251.000000, 81.000000)">
                <path d="M22.0127869,23.0032026 L0.98712486,23.0032026 L0.98712486,21.9600459 L1.47476928,21.9600459 L21.5251425,21.9600459 L22.0127869,21.9600459 L22.0127869,23.0032026 Z M1.9683085,20.9632485 L21.0315569,20.9632485 L21.0315569,19.9200449 L1.9683085,19.9200449 L1.9683085,20.9632485 Z M5.75421338,9.95211814 C5.70589453,9.93618063 5.65446582,9.92718063 5.60090199,9.92718063 L3.67719908,9.92718063 C3.62363524,9.92718063 3.57225295,9.93613376 3.52388768,9.95211814 L3.49116454,9.95211814 L3.49116454,9.28935219 L5.78689011,9.28935219 L5.78689011,9.95211814 L5.75421338,9.95211814 Z M3.97124318,17.2884811 L4.15648865,10.9240717 L5.12170525,10.9240717 L5.30695072,17.2884811 L3.97124318,17.2884811 Z M3.49121096,18.9231538 L5.78693652,18.9231538 L5.78693652,18.2853253 L3.49121096,18.2853253 L3.49121096,18.9231538 Z M6.29518955,17.3154342 L6.10841237,10.8991811 L6.25578254,10.8991811 C6.5147363,10.8991811 6.72467497,10.6872122 6.72467497,10.4256496 L6.72467497,9.28935219 L9.41428503,9.28935219 L9.41428503,10.4256496 C9.41428503,10.6871654 9.62417729,10.8991811 9.88317746,10.8991811 L10.0305012,10.8991811 L9.84372403,17.3154342 C9.60324376,17.3356842 9.41428503,17.5388406 9.41428503,17.7869501 L9.41428503,18.9232006 L6.72467497,18.9232006 L6.72467497,17.7869501 C6.72467497,17.5388406 6.53571624,17.3357311 6.29518955,17.3154342 Z M12.6150723,9.95211814 C12.5667535,9.93618063 12.5153248,9.92718063 12.4617609,9.92718063 L10.5380116,9.92718063 C10.4844478,9.92718063 10.4330655,9.93613376 10.3847002,9.95211814 L10.3519771,9.95211814 L10.3519771,9.28935219 L12.6478419,9.28935219 L12.6478419,9.95211814 L12.6150723,9.95211814 Z M10.8321021,17.288528 L11.0173476,10.9241186 L11.9825642,10.9241186 L12.1678096,17.288528 L10.8321021,17.288528 Z M10.3520699,18.9231538 L12.6478419,18.9231538 L12.6478419,18.2853253 L10.3520699,18.2853253 L10.3520699,18.9231538 Z M13.1560949,17.3153874 L13.1093078,15.7064022 L12.9693641,10.8991811 L13.1167343,10.8991811 C13.3756881,10.8991811 13.5856267,10.6872122 13.5856267,10.4256496 L13.5856267,9.28935219 L16.2751904,9.28935219 L16.2751904,10.4256496 C16.2751904,10.6871654 16.4850826,10.8991811 16.7440828,10.8991811 L16.8914066,10.8991811 L16.704583,17.3153874 C16.4641027,17.3356842 16.275144,17.5388406 16.275144,17.7869032 L16.275144,18.9231538 L13.5855803,18.9231538 L13.5855803,17.7869032 C13.5856267,17.5387937 13.3966216,17.3356374 13.1560949,17.3153874 Z M19.4759312,9.95211814 C19.4276124,9.93618063 19.3761837,9.92718063 19.3226199,9.92718063 L17.3989169,9.92718063 C17.3453531,9.92718063 17.2939244,9.93613376 17.2456055,9.95211814 L17.2128824,9.95211814 L17.2128824,9.28935219 L19.5086544,9.28935219 L19.5086544,9.95211814 L19.4759312,9.95211814 Z M17.692961,17.2883873 L17.8782065,10.9240249 L18.8434695,10.9240249 L18.983506,15.7356522 L19.028715,17.2883873 L17.692961,17.2883873 Z M17.2129288,18.9231538 L19.5087008,18.9231538 L19.5087008,18.2853253 L17.2129288,18.2853253 L17.2129288,18.9231538 Z M1.9683085,8.29246108 L21.0315569,8.29246108 L21.0315569,7.24930432 L1.9683085,7.24930432 L1.9683085,8.29246108 Z M11.4999327,1.0704263 L20.6221695,6.25246008 L2.37769587,6.25246008 L11.4999327,1.0704263 Z M22.5063261,20.9632485 L22.0186817,20.9632485 L22.0186817,19.4216228 C22.0186817,19.1463726 21.7976497,18.9232006 21.5251425,18.9232006 L20.4465321,18.9232006 L20.4465321,17.7869501 C20.4465321,17.5388875 20.2575269,17.3357311 20.0170931,17.3154342 L19.8303159,10.8991811 L19.9776861,10.8991811 C20.2366398,10.8991811 20.4465785,10.6872122 20.4465785,10.4256496 L20.4465785,9.28935219 L21.5251889,9.28935219 C21.7977425,9.28935219 22.0187281,9.06613333 22.0187281,8.79093007 L22.0187281,7.2493512 L22.5063725,7.2493512 C22.7307929,7.2493512 22.9269925,7.09649175 22.9838519,6.87721039 C23.0407113,6.65797591 22.9439343,6.42763204 22.7483381,6.31644449 L11.7419447,0.0640195625 C11.5917431,-0.0213398542 11.4082615,-0.0213398542 11.2580135,0.0640195625 L0.251620062,6.31639762 C0.0560238729,6.42749142 -0.0407066583,6.65788216 0.0161526991,6.87716351 C0.0730120565,7.096398 0.269211651,7.24930432 0.493585638,7.24930432 L0.981183637,7.24930432 L0.981183637,8.7908832 C0.981183637,9.06613333 1.20216927,9.28930532 1.47472286,9.28930532 L2.55337968,9.28930532 L2.55337968,10.4256027 C2.55337968,10.6871185 2.76327194,10.8991342 3.02227211,10.8991342 L3.16959587,10.8991342 L2.98281868,17.3153874 C2.74233841,17.3356374 2.55337968,17.5387937 2.55337968,17.7869032 L2.55337968,18.9231538 L1.47472286,18.9231538 C1.20212285,18.9231538 0.981183637,19.1463726 0.981183637,19.4215759 L0.981183637,20.9632016 L0.493539222,20.9632016 C0.220939217,20.9632016 0,21.1863736 0,21.4616238 L0,23.5015779 C0,23.776828 0.220985633,24 0.493539222,24 L22.5062797,24 C22.7788797,24 22.9998189,23.7767811 22.9998189,23.5015779 L22.9998189,21.46153 C22.9998653,21.1863736 22.7788797,20.9632485 22.5063261,20.9632485 Z" id="Page-1"></path>
            </g>
        </g>
    </g>
</svg>