<?xml version="1.0" encoding="UTF-8" standalone="no"?>
<svg width="26px" height="26px" viewBox="0 0 26 26" version="1.1" xmlns="http://www.w3.org/2000/svg" xmlns:xlink="http://www.w3.org/1999/xlink">
    <!-- Generator: sketchtool 49.3 (51167) - http://www.bohemiancoding.com/sketch -->
    <title>D92A82AD-5717-4566-B553-AEF5BB867183</title>
    <desc>Created with sketchtool.</desc>
    <defs>
        <polygon id="path-1" points="24.9594222 0.0693333333 0 0.0693333333 0 11.8366444 0 23.6039556 24.9594222 23.6039556"></polygon>
    </defs>
    <g id="Page-1" stroke="none" stroke-width="1" fill="none" fill-rule="evenodd">
        <g id="Materials" transform="translate(-961.000000, -83.000000)">
            <g id="return-to-map" transform="translate(961.000000, 83.000000)">
                <g id="Page-1">
                    <path d="M15.2521778,18.9719111 C15.2521778,16.7307111 17.0785333,14.9049333 19.3197333,14.9049333 C21.5603556,14.9049333 23.3844,16.7307111 23.3844,18.9719111 C23.3844,21.2131111 21.5603556,23.0365778 19.3197333,23.0365778 C17.0785333,23.0365778 15.2521778,21.2131111 15.2521778,18.9719111 M25.7654222,25.2078667 L23.0048,22.3236 C23.8131111,21.4361333 24.3094222,20.2626667 24.3094222,18.9719111 C24.3094222,16.2205333 22.0705333,13.9816444 19.3197333,13.9816444 C16.5683556,13.9816444 14.3294667,16.2205333 14.3294667,18.9719111 C14.3294667,21.7227111 16.5683556,23.9616 19.3197333,23.9616 C20.4481333,23.9616 21.4864,23.5802667 22.3236,22.9464444 L25.0975111,25.8486222 C25.1876444,25.9433778 25.3095556,25.9907556 25.4314667,25.9907556 C25.5464444,25.9907556 25.6614222,25.948 25.7492444,25.8624889 C25.9347111,25.6862667 25.9410667,25.3927556 25.7654222,25.2078667" id="Fill-1" fill="#1D1D1B"></path>
                    <g id="Group-5" transform="translate(0.000000, 0.545422)">
                        <mask id="mask-2" fill="white">
                            <use xlink:href="#path-1"></use>
                        </mask>
                        <g id="Clip-4"></g>
                        <path d="M0.9256,3.60071111 L8.31884444,1.13591111 L8.31884444,20.0356 L0.9256,22.5004 L0.9256,3.60071111 Z M12.1986222,21.3309778 L9.24444444,20.0650667 L9.24444444,1.26244444 L16.1777778,4.93191111 L16.1777778,11.5856 C16.1777778,11.8427111 16.3852,12.0484 16.6405778,12.0484 C16.8953778,12.0484 17.1033778,11.8427111 17.1033778,11.5856 L17.1033778,4.96368889 L24.0367111,2.10888889 L24.0367111,13.4362222 C24.0367111,13.6910222 24.2418222,13.8990222 24.4966222,13.8990222 C24.7543111,13.8990222 24.9594222,13.6910222 24.9594222,13.4362222 L24.9594222,1.41786667 C24.9594222,1.26475556 24.8825778,1.12031111 24.7543111,1.03422222 C24.6277778,0.948711111 24.4654222,0.932533333 24.3209778,0.991466667 L16.6654222,4.1444 L8.99831111,0.0843555556 C8.99137778,0.0820444444 8.98733333,0.0820444444 8.9804,0.0774222222 C8.95786667,0.0681777778 8.93533333,0.0595111111 8.91048889,0.0525777778 C8.89893333,0.0479555556 8.88564444,0.0433333333 8.87408889,0.0410222222 C8.84693333,0.0369777778 8.82266667,0.0346666667 8.79782222,0.0346666667 C8.78395556,0.0323555556 8.77297778,0.0323555556 8.75911111,0.0323555556 C8.73657778,0.0346666667 8.71404444,0.0392888889 8.69151111,0.0433333333 C8.67591111,0.0456444444 8.65973333,0.0479555556 8.64413333,0.0525777778 C8.64182222,0.0525777778 8.63951111,0.0525777778 8.6372,0.0548888889 L0.316044444,2.8288 C0.126533333,2.89177778 0,3.068 0,3.26617778 L0,23.1434667 C0,23.2902222 0.0722222222,23.4300444 0.191822222,23.5178667 C0.270977778,23.5744889 0.365733333,23.6039556 0.4628,23.6039556 C0.512488889,23.6039556 0.559866667,23.5970222 0.609555556,23.5814222 L8.76142222,20.8641333 L11.8352,22.1797333 C11.8941333,22.2068889 11.9571111,22.2178667 12.0183556,22.2178667 C12.1963111,22.2178667 12.3679111,22.1121333 12.4424444,21.9382222 C12.5441333,21.7036444 12.4337778,21.4326667 12.1986222,21.3309778 Z" id="Fill-3" fill="#1D1D1B" mask="url(#mask-2)"></path>
                    </g>
                </g>
            </g>
        </g>
    </g>
</svg>