<?xml version="1.0" encoding="UTF-8" standalone="no"?>
<svg width="44px" height="44px" viewBox="0 0 44 44" version="1.1" xmlns="http://www.w3.org/2000/svg" xmlns:xlink="http://www.w3.org/1999/xlink">
    <!-- Generator: sketchtool 49.3 (51167) - http://www.bohemiancoding.com/sketch -->
    <title>9C635E8C-C323-4A71-9413-CC3E9CBB1DAC</title>
    <desc>Created with sketchtool.</desc>
    <defs>
        <rect id="path-1" x="0" y="0" width="40" height="40"></rect>
        <filter x="-7.5%" y="-7.5%" width="115.0%" height="115.0%" filterUnits="objectBoundingBox" id="filter-2">
            <feOffset dx="0" dy="0" in="SourceAlpha" result="shadowOffsetOuter1"></feOffset>
            <feGaussianBlur stdDeviation="1" in="shadowOffsetOuter1" result="shadowBlurOuter1"></feGaussianBlur>
            <feColorMatrix values="0 0 0 0 0   0 0 0 0 0   0 0 0 0 0  0 0 0 0.204851676 0" type="matrix" in="shadowBlurOuter1"></feColorMatrix>
        </filter>
    </defs>
    <g id="Page-1" stroke="none" stroke-width="1" fill="none" fill-rule="evenodd">
        <g id="Materials" transform="translate(-1052.000000, -71.000000)">
            <g id="RUINS" transform="translate(1054.000000, 73.000000)">
                <g>
                    <g id="Rectangle-3">
                        <use fill="black" fill-opacity="1" filter="url(#filter-2)" xlink:href="#path-1"></use>
                        <use fill="#4A4A4A" fill-rule="evenodd" xlink:href="#path-1"></use>
                    </g>
                    <path d="M21.8881902,7 L20.4640858,8.44903636 L19.0387123,8.44903636 L17.8913056,9.61782237 L16.7426297,8.44903636 L14.3310448,8.44903636 L14.3310448,25.8439301 L12.9056713,25.8439301 L12.9056713,28.7420028 L11.481567,28.7420028 L11.481567,31.641367 L8,31.641367 L8,33 L30,33 L30,31.641367 L27.0616743,31.641367 L27.0616743,28.7420028 L25.63757,28.7420028 L25.63757,25.8439301 L24.2121964,25.8439301 L24.2121964,7 L21.8881902,7 Z M21.2078694,12.9511226 L18.8318237,10.5554341 L19.5921075,9.80766938 L21.0162119,9.80766938 L22.4415854,8.35863302 L22.8769399,8.35863302 L22.8769399,25.8439301 L15.6663013,25.8439301 L15.6663013,9.80766938 L16.1905037,9.80766938 L17.9941153,11.6428571 L17.1792534,12.4254918 L17.1792534,14.1560699 L18.5145099,14.1560699 L18.5145099,12.9885754 L18.9371719,12.5804689 L20.2571973,13.9119809 L21.2078694,12.9511226 Z M14.2409277,28.7432943 L24.3010443,28.7432943 L24.3010443,27.2025631 L14.2409277,27.2025631 L14.2409277,28.7432943 Z M12.8168234,31.641367 L25.7264178,31.641367 L25.7264178,30.1006358 L12.8168234,30.1006358 L12.8168234,31.641367 Z" id="Page-1" fill="#FFFFFF"></path>
                </g>
            </g>
        </g>
    </g>
</svg>