<?xml version="1.0" encoding="UTF-8" standalone="no"?>
<svg width="22px" height="26px" viewBox="0 0 22 26" version="1.1" xmlns="http://www.w3.org/2000/svg" xmlns:xlink="http://www.w3.org/1999/xlink">
    <!-- Generator: sketchtool 49.3 (51167) - http://www.bohemiancoding.com/sketch -->
    <title>36059602-5E23-47CD-BB16-D29248D0AFCB</title>
    <desc>Created with sketchtool.</desc>
    <defs></defs>
    <g id="Page-1" stroke="none" stroke-width="1" fill="none" fill-rule="evenodd">
        <g id="Materials" transform="translate(-1291.000000, -80.000000)" fill="#1078D1">
            <path d="M1304.88819,80 L1303.46409,81.4490364 L1302.03871,81.4490364 L1300.89131,82.6178224 L1299.74263,81.4490364 L1297.33104,81.4490364 L1297.33104,98.8439301 L1295.90567,98.8439301 L1295.90567,101.742003 L1294.48157,101.742003 L1294.48157,104.641367 L1291,104.641367 L1291,106 L1313,106 L1313,104.641367 L1310.06167,104.641367 L1310.06167,101.742003 L1308.63757,101.742003 L1308.63757,98.8439301 L1307.2122,98.8439301 L1307.2122,80 L1304.88819,80 Z M1304.20787,85.9511226 L1301.83182,83.5554341 L1302.59211,82.8076694 L1304.01621,82.8076694 L1305.44159,81.358633 L1305.87694,81.358633 L1305.87694,98.8439301 L1298.6663,98.8439301 L1298.6663,82.8076694 L1299.1905,82.8076694 L1300.99412,84.6428571 L1300.17925,85.4254918 L1300.17925,87.1560699 L1301.51451,87.1560699 L1301.51451,85.9885754 L1301.93717,85.5804689 L1303.2572,86.9119809 L1304.20787,85.9511226 Z M1297.24093,101.743294 L1307.30104,101.743294 L1307.30104,100.202563 L1297.24093,100.202563 L1297.24093,101.743294 Z M1295.81682,104.641367 L1308.72642,104.641367 L1308.72642,103.100636 L1295.81682,103.100636 L1295.81682,104.641367 Z" id="Page-1"></path>
        </g>
    </g>
</svg>