<?xml version="1.0" encoding="UTF-8" standalone="no"?>
<svg width="15px" height="16px" viewBox="0 0 15 16" version="1.1" xmlns="http://www.w3.org/2000/svg" xmlns:xlink="http://www.w3.org/1999/xlink">
    <!-- Generator: sketchtool 49.3 (51167) - http://www.bohemiancoding.com/sketch -->
    <title>E072650E-014D-4B82-8134-DEC10D9448AE</title>
    <desc>Created with sketchtool.</desc>
    <defs></defs>
    <g id="Page-1" stroke="none" stroke-width="1" fill="none" fill-rule="evenodd">
        <g id="Materials" transform="translate(-1002.000000, -87.000000)" fill="#9B9B9B">
            <g id="Search-icon" transform="translate(1002.000000, 87.000000)">
                <path d="M6.09453088,11.6079393 C3.05361353,11.6079393 0.581122462,9.13399724 0.581122462,6.09453088 C0.581122462,3.05361353 3.05361353,0.581122462 6.09453088,0.581122462 C9.13399724,0.581122462 11.6079393,3.05361353 11.6079393,6.09453088 C11.6079393,9.13399724 9.13399724,11.6079393 6.09453088,11.6079393 M14.7195925,14.8799272 L10.4076058,10.3949096 C11.5074581,9.29106717 12.1890618,7.77078987 12.1890618,6.09453088 C12.1890618,2.73330696 9.45394107,0 6.09453088,0 C2.73330696,0 0,2.73330696 0,6.09453088 C0,9.45430382 2.73330696,12.1890618 6.09453088,12.1890618 C7.56946467,12.1890618 8.92287785,11.6605378 9.97847483,10.7863149 L14.3002557,15.2822148 C14.3568444,15.3417055 14.4333843,15.3699999 14.5099241,15.3699999 C14.582111,15.3699999 14.6542979,15.3431565 14.7112493,15.2894698 C14.8258777,15.1788316 14.8302307,14.9945556 14.7195925,14.8799272" id="Page-1"></path>
            </g>
        </g>
    </g>
</svg>