<?xml version="1.0" encoding="UTF-8" standalone="no"?>
<svg width="24px" height="29px" viewBox="0 0 24 29" version="1.1" xmlns="http://www.w3.org/2000/svg" xmlns:xlink="http://www.w3.org/1999/xlink">
    <!-- Generator: sketchtool 49.3 (51167) - http://www.bohemiancoding.com/sketch -->
    <title>E526DEB2-EA1A-4553-9F91-E3E74C772693</title>
    <desc>Created with sketchtool.</desc>
    <defs>
        <polygon id="path-1" points="0 0.825 23.0738 0.825 23.0738 29 0 29"></polygon>
    </defs>
    <g id="Page-1" stroke="none" stroke-width="1" fill="none" fill-rule="evenodd">
        <g id="Materials" transform="translate(-1165.000000, -79.000000)">
            <g id="Page-1" transform="translate(1165.000000, 78.000000)">
                <g id="Group-3" transform="translate(0.000000, 0.175400)">
                    <mask id="mask-2" fill="white">
                        <use xlink:href="#path-1"></use>
                    </mask>
                    <g id="Clip-2"></g>
                    <path d="M10.2428,27.137 L11.5368,27.887 L12.8308,27.137 C21.2488,22.257 21.9748,17.079 22.0298,16.504 L22.0448,16.356 L22.0418,2.144 L18.6778,3.216 C18.0708,3.409 17.4168,3.507 16.7348,3.507 C14.8278,3.507 13.1648,2.742 12.7008,2.507 L11.5368,1.919 L10.3728,2.507 C9.9088,2.742 8.2468,3.507 6.3388,3.507 C5.6568,3.507 5.0038,3.409 4.3958,3.216 L1.0318,2.144 L1.0438,16.504 C1.0998,17.079 1.8278,22.258 10.2428,27.137 M11.5368,29 C11.4478,29 11.3578,28.977 11.2778,28.93 L9.7248,28.03 C0.8648,22.893 0.0778,17.232 0.0168,16.603 L0.0028,16.456 L-0.0002,1.438 C-0.0002,1.274 0.0788,1.119 0.2118,1.022 C0.3448,0.924 0.5158,0.897 0.6728,0.947 L4.7088,2.232 C5.2148,2.393 5.7638,2.475 6.3388,2.475 C8.0178,2.475 9.4948,1.795 9.9078,1.586 L11.3038,0.88 C11.4508,0.806 11.6228,0.806 11.7698,0.88 L13.1668,1.586 C13.5788,1.795 15.0558,2.475 16.7348,2.475 C17.3108,2.475 17.8588,2.393 18.3648,2.232 L22.4008,0.946 C22.5588,0.896 22.7288,0.924 22.8628,1.021 C22.9958,1.119 23.0738,1.273 23.0738,1.438 L23.0568,16.603 C22.9968,17.231 22.2128,22.891 13.3488,28.03 L11.7958,28.93 C11.7158,28.977 11.6268,29 11.5368,29" id="Fill-1" fill="#1078D1" mask="url(#mask-2)"></path>
                </g>
                <path d="M4.1286,16.3989 C4.1756,16.7059 4.8916,20.5429 11.5366,24.4819 C18.1826,20.5429 18.8986,16.7059 18.9456,16.3989 L18.9456,6.5279 C15.7796,7.2769 12.8776,6.2009 11.5366,5.5609 C10.1956,6.2009 7.2946,7.2769 4.1286,6.5279 L4.1286,16.3989 Z M11.5366,25.5959 C11.4476,25.5959 11.3576,25.5729 11.2786,25.5269 C3.6256,21.0899 3.1166,16.6679 3.0986,16.4819 L3.0966,5.8499 C3.0966,5.6849 3.1746,5.5299 3.3076,5.4329 C3.4416,5.3359 3.6126,5.3079 3.7696,5.3579 C7.1196,6.4249 10.3836,4.9909 11.3036,4.5249 C11.4506,4.4509 11.6236,4.4509 11.7696,4.5249 C12.6906,4.9909 15.9536,6.4249 19.3046,5.3579 C19.4626,5.3079 19.6326,5.3359 19.7656,5.4329 C19.8986,5.5299 19.9776,5.6849 19.9776,5.8499 L19.9776,16.4329 C19.9566,16.6679 19.4486,21.0899 11.7956,25.5269 C11.7156,25.5729 11.6266,25.5959 11.5366,25.5959 Z" id="Fill-4" fill="#1078D1"></path>
            </g>
        </g>
    </g>
</svg>